<?xml version="1.0" encoding="utf-8"?>
<!-- Generator: Adobe Illustrator 26.4.1, SVG Export Plug-In . SVG Version: 6.00 Build 0)  -->
<svg width="33" height="32" version="1.1" id="图层_1" xmlns="http://www.w3.org/2000/svg" xmlns:xlink="http://www.w3.org/1999/xlink" x="0px" y="0px"
	 viewBox="0 0 33 32" style="enable-background:new 0 0 33 32;" xml:space="preserve">
<style type="text/css">
	.st0{fill:url(#SVGID_1_);}
	.st1{fill:url(#SVGID_00000038371100167862688010000004565239830877811329_);}
	.st2{fill:url(#SVGID_00000094580526967427236700000000682799886412011395_);}
	.st3{fill:url(#SVGID_00000093134716093373197400000012386178709363839919_);}
	.st4{fill:url(#SVGID_00000041987022159178787560000009986108774923884971_);}
</style>
<path d="M62.9,9.7c-0.1-0.1-0.1-0.1-0.2-0.2C62.7,9.6,62.8,9.7,62.9,9.7z"/>
<path d="M65.1,13.7L65.1,13.7L65.1,13.7z"/>
<g>
	<linearGradient id="SVGID_1_" gradientUnits="userSpaceOnUse" x1="0.5389" y1="16" x2="31.527" y2="16">
		<stop  offset="0" style="stop-color:#905FFF"/>
		<stop  offset="0.5391" style="stop-color:#F5C638"/>
		<stop  offset="1" style="stop-color:#5EE6A3"/>
	</linearGradient>
	<path class="st0" d="M7.2,31.6L7.2,31.6c-1.4-0.8-1.9-2.7-1.1-4.2L21,1.5c0.8-1.4,2.7-1.9,4.2-1.1l0,0c1.4,0.8,1.9,2.7,1.1,4.2
		l-15,25.9C10.5,31.9,8.6,32.4,7.2,31.6z"/>
	
		<linearGradient id="SVGID_00000165952232756039389640000014176157298751787442_" gradientUnits="userSpaceOnUse" x1="0.5389" y1="7.2277" x2="31.527" y2="7.2277">
		<stop  offset="0" style="stop-color:#905FFF"/>
		<stop  offset="0.5391" style="stop-color:#F5C638"/>
		<stop  offset="1" style="stop-color:#5EE6A3"/>
	</linearGradient>
	<path style="fill:url(#SVGID_00000165952232756039389640000014176157298751787442_);" d="M7.9,14.1L7.9,14.1
		C6.5,13.2,6,11.3,6.8,9.9l4.8-8.4c0.8-1.4,2.7-1.9,4.2-1.1l0,0c1.4,0.8,1.9,2.7,1.1,4.2l-4.8,8.4C11.2,14.4,9.4,14.9,7.9,14.1z"/>
	
		<linearGradient id="SVGID_00000108268391515486139420000005233556039592029059_" gradientUnits="userSpaceOnUse" x1="0.5389" y1="4.3036" x2="31.527" y2="4.3036">
		<stop  offset="0" style="stop-color:#905FFF"/>
		<stop  offset="0.5391" style="stop-color:#F5C638"/>
		<stop  offset="1" style="stop-color:#5EE6A3"/>
	</linearGradient>
	<path style="fill:url(#SVGID_00000108268391515486139420000005233556039592029059_);" d="M2.3,8.2L2.3,8.2C0.8,7.4,0.3,5.5,1.2,4.1
		l1.5-2.5c0.8-1.4,2.7-1.9,4.2-1.1l0,0c1.4,0.8,1.9,2.7,1.1,4.2L6.4,7.1C5.6,8.5,3.7,9,2.3,8.2z"/>
	
		<linearGradient id="SVGID_00000047055771084133808200000001189200486925035666_" gradientUnits="userSpaceOnUse" x1="0.5389" y1="24.7723" x2="31.527" y2="24.7723">
		<stop  offset="0" style="stop-color:#905FFF"/>
		<stop  offset="0.5391" style="stop-color:#F5C638"/>
		<stop  offset="1" style="stop-color:#5EE6A3"/>
	</linearGradient>
	<path style="fill:url(#SVGID_00000047055771084133808200000001189200486925035666_);" d="M24.5,17.9L24.5,17.9
		c1.4,0.8,1.9,2.7,1.1,4.2l-4.8,8.4c-0.8,1.4-2.7,1.9-4.2,1.1l0,0c-1.4-0.8-1.9-2.7-1.1-4.2l4.8-8.4C21.2,17.6,23.1,17.1,24.5,17.9z
		"/>
	
		<linearGradient id="SVGID_00000051372842809106578720000000648131462258898592_" gradientUnits="userSpaceOnUse" x1="0.5389" y1="27.6964" x2="31.527" y2="27.6964">
		<stop  offset="0" style="stop-color:#905FFF"/>
		<stop  offset="0.5391" style="stop-color:#F5C638"/>
		<stop  offset="1" style="stop-color:#5EE6A3"/>
	</linearGradient>
	<path style="fill:url(#SVGID_00000051372842809106578720000000648131462258898592_);" d="M30.7,23.8L30.7,23.8
		c1.4,0.8,1.9,2.7,1.1,4.2l-1.5,2.5c-0.8,1.4-2.7,1.9-4.2,1.1l0,0c-1.4-0.8-1.9-2.7-1.1-4.2l1.5-2.5C27.4,23.5,29.3,23,30.7,23.8z"
		/>
</g>
</svg>
