<?xml version="1.0" encoding="utf-8"?>
<!-- Generator: Adobe Illustrator 26.0.1, SVG Export Plug-In . SVG Version: 6.00 Build 0)  -->
<svg width="33" height="32" version="1.1" id="图层_1" xmlns="http://www.w3.org/2000/svg" xmlns:xlink="http://www.w3.org/1999/xlink" x="0px" y="0px"
	 viewBox="0 0 33 32" style="enable-background:new 0 0 33 32;" xml:space="preserve">
<style type="text/css">
	.st0{fill:url(#SVGID_1_);}
	.st1{fill:url(#SVGID_00000036964994459170910960000004654874922158564260_);}
	.st2{fill:url(#SVGID_00000043422318229703079840000007012686895814336956_);}
	.st3{fill:url(#SVGID_00000005265454180008804450000007048280212400937106_);}
	.st4{fill:url(#SVGID_00000003784644728240006310000009466401876154371233_);}
	.st5{fill:#999999;}
</style>
<g>
	<g>
		
			<linearGradient id="SVGID_1_" gradientUnits="userSpaceOnUse" x1="4.9488" y1="22.4097" x2="27.422" y2="22.4097" gradientTransform="matrix(1 0 0 -1 0 34)">
			<stop  offset="0" style="stop-color:#905FFF"/>
			<stop  offset="0.5391" style="stop-color:#F5C638"/>
			<stop  offset="1" style="stop-color:#5EE6A3"/>
		</linearGradient>
		<path class="st0" d="M9.8,22.9L9.8,22.9c-1-0.6-1.4-2-0.8-3L19.8,1.1c0.6-1,2-1.4,3-0.8l0,0c1,0.6,1.4,2,0.8,3L12.8,22.1
			C12.2,23.1,10.8,23.5,9.8,22.9z"/>
		
			<linearGradient id="SVGID_00000145017893769253061420000016397600397325197754_" gradientUnits="userSpaceOnUse" x1="4.9488" y1="28.7554" x2="27.422" y2="28.7554" gradientTransform="matrix(1 0 0 -1 0 34)">
			<stop  offset="0" style="stop-color:#905FFF"/>
			<stop  offset="0.5391" style="stop-color:#F5C638"/>
			<stop  offset="1" style="stop-color:#5EE6A3"/>
		</linearGradient>
		<path style="fill:url(#SVGID_00000145017893769253061420000016397600397325197754_);" d="M10.3,10.2L10.3,10.2c-1-0.7-1.4-2-0.8-3
			L13,1.1c0.6-1,2-1.4,3-0.8l0,0c1,0.6,1.4,2,0.8,3l-3.5,6.1C12.7,10.4,11.4,10.8,10.3,10.2z"/>
		
			<linearGradient id="SVGID_00000060011131185249975200000000420668721590142625_" gradientUnits="userSpaceOnUse" x1="4.9488" y1="30.8585" x2="27.422" y2="30.8585" gradientTransform="matrix(1 0 0 -1 0 34)">
			<stop  offset="0" style="stop-color:#905FFF"/>
			<stop  offset="0.5391" style="stop-color:#F5C638"/>
			<stop  offset="1" style="stop-color:#5EE6A3"/>
		</linearGradient>
		<path style="fill:url(#SVGID_00000060011131185249975200000000420668721590142625_);" d="M6.2,5.9L6.2,5.9C5.1,5.4,4.8,4,5.4,3
			l1.1-1.8c0.6-1,2-1.4,3-0.8l0,0c1,0.6,1.4,2,0.8,3L9.2,5.1C8.6,6.2,7.2,6.5,6.2,5.9z"/>
		
			<linearGradient id="SVGID_00000013886138270183608140000016965492714965006505_" gradientUnits="userSpaceOnUse" x1="4.9488" y1="16.064" x2="27.422" y2="16.064" gradientTransform="matrix(1 0 0 -1 0 34)">
			<stop  offset="0" style="stop-color:#905FFF"/>
			<stop  offset="0.5391" style="stop-color:#F5C638"/>
			<stop  offset="1" style="stop-color:#5EE6A3"/>
		</linearGradient>
		<path style="fill:url(#SVGID_00000013886138270183608140000016965492714965006505_);" d="M22.3,13L22.3,13c1,0.6,1.4,2,0.8,3
			l-3.5,6.1c-0.6,1-2,1.4-3,0.8l0,0c-1-0.6-1.4-2-0.8-3l3.5-6.1C19.9,12.8,21.3,12.4,22.3,13z"/>
		
			<linearGradient id="SVGID_00000178917364046102443690000017216869757429910664_" gradientUnits="userSpaceOnUse" x1="4.9488" y1="13.9246" x2="27.422" y2="13.9246" gradientTransform="matrix(1 0 0 -1 0 34)">
			<stop  offset="0" style="stop-color:#905FFF"/>
			<stop  offset="0.5391" style="stop-color:#F5C638"/>
			<stop  offset="1" style="stop-color:#5EE6A3"/>
		</linearGradient>
		<path style="fill:url(#SVGID_00000178917364046102443690000017216869757429910664_);" d="M26.8,17.2L26.8,17.2c1,0.6,1.4,2,0.8,3
			l-1.1,1.8c-0.6,1-2,1.4-3,0.8l0,0c-1-0.6-1.4-2-0.8-3l1.1-1.8C24.4,17,25.8,16.7,26.8,17.2z"/>
	</g>
	<g>
		<path class="st5" d="M11.3,30.4H10l-0.5-1.3H7.3l-0.5,1.3H5.6l2.2-5.7H9L11.3,30.4z M9.2,28.2l-0.8-2.1l-0.8,2.1H9.2z"/>
		<path class="st5" d="M11.9,30.4v-5.7H13v5.7H11.9z"/>
		<path class="st5" d="M14.1,26.3h1v0.6c0.1-0.2,0.3-0.4,0.5-0.5c0.2-0.1,0.5-0.2,0.8-0.2c0.5,0,0.9,0.2,1.2,0.6
			c0.3,0.4,0.5,0.9,0.5,1.6c0,0.7-0.2,1.2-0.5,1.6c-0.3,0.4-0.7,0.6-1.2,0.6c-0.2,0-0.4,0-0.6-0.1c-0.2-0.1-0.4-0.2-0.6-0.5V32h-1.1
			V26.3z M15.2,28.3c0,0.5,0.1,0.8,0.3,1s0.4,0.3,0.7,0.3c0.3,0,0.5-0.1,0.6-0.3c0.2-0.2,0.3-0.5,0.3-1c0-0.4-0.1-0.8-0.3-1
			c-0.2-0.2-0.4-0.3-0.6-0.3c-0.3,0-0.5,0.1-0.7,0.3C15.2,27.6,15.2,27.9,15.2,28.3z"/>
		<path class="st5" d="M20.1,24.7v2.1c0.4-0.4,0.8-0.6,1.3-0.6c0.3,0,0.5,0,0.7,0.1c0.2,0.1,0.4,0.2,0.5,0.4
			c0.1,0.1,0.2,0.3,0.2,0.5c0,0.2,0.1,0.4,0.1,0.8v2.4h-1.1v-2.2c0-0.4,0-0.7-0.1-0.8c0-0.1-0.1-0.2-0.2-0.3
			C21.2,27.1,21.1,27,21,27c-0.2,0-0.3,0-0.5,0.1c-0.1,0.1-0.2,0.2-0.3,0.4c-0.1,0.2-0.1,0.4-0.1,0.8v2.1H19v-5.7H20.1z"/>
		<path class="st5" d="M24.7,27.6l-1-0.2c0.1-0.4,0.3-0.7,0.6-0.9c0.3-0.2,0.7-0.3,1.2-0.3c0.5,0,0.8,0.1,1.1,0.2
			c0.2,0.1,0.4,0.3,0.5,0.4c0.1,0.2,0.1,0.5,0.1,1l0,1.3c0,0.4,0,0.6,0.1,0.8c0,0.2,0.1,0.4,0.2,0.6h-1.1c0-0.1-0.1-0.2-0.1-0.3
			c0-0.1,0-0.1,0-0.1c-0.2,0.2-0.4,0.3-0.6,0.4c-0.2,0.1-0.4,0.1-0.7,0.1c-0.4,0-0.8-0.1-1-0.3s-0.4-0.5-0.4-0.9
			c0-0.2,0.1-0.4,0.2-0.6c0.1-0.2,0.3-0.3,0.5-0.4c0.2-0.1,0.5-0.2,0.9-0.3c0.5-0.1,0.9-0.2,1.1-0.3v-0.1c0-0.2-0.1-0.4-0.2-0.4
			c-0.1-0.1-0.3-0.1-0.6-0.1c-0.2,0-0.3,0-0.5,0.1S24.7,27.4,24.7,27.6z M26.1,28.4c-0.1,0-0.4,0.1-0.7,0.2s-0.5,0.1-0.6,0.2
			c-0.1,0.1-0.2,0.2-0.2,0.4c0,0.2,0.1,0.3,0.2,0.4c0.1,0.1,0.3,0.2,0.4,0.2c0.2,0,0.4-0.1,0.6-0.2c0.1-0.1,0.2-0.2,0.3-0.4
			c0-0.1,0-0.3,0-0.5V28.4z"/>
	</g>
</g>
</svg>
