<?xml version="1.0" encoding="utf-8"?>
<!-- Generator: Adobe Illustrator 26.4.1, SVG Export Plug-In . SVG Version: 6.00 Build 0)  -->
<svg width="182.3" height="20" version="1.1" id="图层_1" xmlns="http://www.w3.org/2000/svg" xmlns:xlink="http://www.w3.org/1999/xlink" x="0px" y="0px"
	 viewBox="0 0 182.3 20" style="enable-background:new 0 0 182.3 16;" xml:space="preserve">
<style type="text/css">
	.st0{fill:#FFFFFF;}
	.st1{fill:#838383;}
</style>
<g>
	<path class="st0" d="M0.4,15.3C0.1,15,0,14.7,0,14.3c0-0.3,0.1-0.6,0.3-0.9L8.7,3.1C8.7,3,8.8,3,8.8,3s0,0-0.1,0H1.1
		C0.8,3,0.5,2.9,0.3,2.7S0,2.2,0,1.9s0.1-0.5,0.3-0.7s0.5-0.3,0.8-0.3h9c0.4,0,0.7,0.1,1,0.4s0.4,0.6,0.4,1c0,0.3-0.1,0.6-0.3,0.9
		L2.8,13.5l-0.1,0.1c0,0,0,0,0.1,0h7.7c0.3,0,0.5,0.1,0.7,0.3s0.3,0.4,0.3,0.7s-0.1,0.5-0.3,0.7s-0.4,0.3-0.7,0.3H1.3
		C1,15.7,0.7,15.5,0.4,15.3z"/>
	<path class="st0" d="M15,15.5c-0.6-0.3-1-0.6-1.3-1.1s-0.5-1.1-0.5-1.7c0-1.1,0.4-2,1.3-2.6c0.9-0.6,2.1-0.9,3.6-0.9h2.4l0,0
		c0-0.9-0.2-1.5-0.6-1.9s-1.1-0.6-2-0.6c-0.5,0-0.9,0-1.3,0.1S15.7,7,15.2,7.2l-0.3,0.1c-0.2,0-0.5-0.1-0.6-0.3
		C14.1,6.7,14,6.5,14,6.3c0-0.4,0.2-0.7,0.6-0.9c1.2-0.5,2.4-0.8,3.6-0.8c1,0,1.8,0.2,2.5,0.6s1.1,0.9,1.5,1.5
		c0.3,0.6,0.5,1.3,0.5,2.1v5.9c0,0.3-0.1,0.6-0.3,0.8c-0.2,0.2-0.5,0.3-0.8,0.3s-0.6-0.1-0.8-0.3c-0.2-0.2-0.3-0.5-0.3-0.8v-0.2
		c-0.9,0.9-2.2,1.4-3.8,1.4C16.2,15.9,15.6,15.8,15,15.5z M19.2,13.6c0.5-0.3,1-0.6,1.4-1.1v-1.6h-2.2c-2,0-3,0.5-3,1.5
		s0.7,1.5,2.1,1.5C18.1,14,18.6,13.8,19.2,13.6z"/>
	<path class="st0" d="M27.7,15.2c-0.8-0.5-1.5-1.1-1.9-2c-0.5-0.9-0.7-1.9-0.7-3s0.2-2.1,0.7-3s1.1-1.5,1.9-2s1.6-0.7,2.5-0.7
		c1.4,0,2.5,0.5,3.4,1.4V1.2c0-0.3,0.1-0.6,0.3-0.8s0.5-0.3,0.8-0.3s0.6,0.1,0.8,0.3s0.3,0.5,0.3,0.8v13.5c0,0.3-0.1,0.6-0.3,0.8
		s-0.5,0.3-0.8,0.3s-0.5-0.1-0.8-0.3c-0.2-0.2-0.3-0.5-0.3-0.8v-0.2c-0.9,0.9-2,1.4-3.4,1.4C29.3,15.9,28.5,15.7,27.7,15.2z
		 M32.2,13.5c0.5-0.3,1-0.6,1.4-1.1V8.1c-0.4-0.4-0.9-0.8-1.4-1.1c-0.5-0.3-1.1-0.4-1.7-0.4c-1,0-1.8,0.3-2.4,1
		c-0.6,0.6-0.9,1.5-0.9,2.7c0,1.1,0.3,2,0.9,2.7c0.6,0.6,1.4,1,2.4,1C31,13.9,31.6,13.7,32.2,13.5z"/>
	<path class="st0" d="M39.9,15.5c-0.6-0.3-1-0.6-1.3-1.1s-0.5-1.1-0.5-1.7c0-1.1,0.4-2,1.3-2.6c0.9-0.6,2.1-0.9,3.6-0.9h2.4l0,0
		c0-0.9-0.2-1.5-0.6-1.9c-0.4-0.4-1.1-0.6-2-0.6c-0.5,0-0.9,0-1.3,0.1c-0.5,0-1,0.2-1.5,0.3l-0.3,0.1c-0.2,0-0.5-0.1-0.6-0.3
		c-0.2-0.2-0.3-0.4-0.3-0.7c0-0.4,0.2-0.7,0.6-0.9c1.2-0.5,2.4-0.8,3.6-0.8c1,0,1.8,0.2,2.5,0.6S46.6,6,47,6.6
		c0.3,0.6,0.5,1.3,0.5,2.1v5.9c0,0.3-0.1,0.6-0.3,0.8s-0.5,0.3-0.8,0.3s-0.6-0.1-0.8-0.3s-0.3-0.5-0.3-0.8v-0.2
		c-0.9,0.9-2.2,1.4-3.8,1.4C41,15.9,40.4,15.8,39.9,15.5z M44,13.6c0.5-0.3,1-0.6,1.4-1.1v-1.6h-2.2c-2,0-3,0.5-3,1.5
		s0.7,1.5,2.1,1.5C42.9,14,43.5,13.8,44,13.6z"/>
	<path class="st0" d="M57.4,15.5c-0.2-0.2-0.3-0.5-0.3-0.8V2c0-0.3,0.1-0.5,0.3-0.8c0.2-0.2,0.5-0.3,0.8-0.3h8.1
		c0.3,0,0.5,0.1,0.7,0.3s0.3,0.4,0.3,0.7S67.2,2.4,67,2.6c-0.2,0.2-0.4,0.3-0.7,0.3h-6.9c-0.1,0-0.1,0.1-0.1,0.1v4.2h6.3
		c0.3,0,0.5,0.1,0.7,0.3c0.2,0.2,0.3,0.4,0.3,0.7c0,0.3-0.1,0.5-0.3,0.7c-0.2,0.2-0.4,0.3-0.7,0.3h-6.3v5.4c0,0.3-0.1,0.6-0.3,0.8
		s-0.5,0.3-0.8,0.3C57.9,15.8,57.6,15.7,57.4,15.5z"/>
	<path class="st0" d="M69.3,2.5C69.1,2.3,69,2,69,1.7V1.6c0-0.3,0.1-0.6,0.4-0.8c0.2-0.2,0.5-0.4,0.8-0.4h0.1c0.3,0,0.6,0.1,0.8,0.4
		c0.2,0.2,0.4,0.5,0.4,0.8v0.1c0,0.3-0.1,0.6-0.4,0.8c-0.2,0.2-0.5,0.4-0.8,0.4h-0.1C69.9,2.9,69.6,2.8,69.3,2.5z M69.5,15.5
		c-0.2-0.2-0.3-0.5-0.3-0.8V5.8c0-0.3,0.1-0.6,0.3-0.8c0.2-0.2,0.5-0.3,0.8-0.3s0.6,0.1,0.8,0.3c0.2,0.2,0.3,0.5,0.3,0.8v8.9
		c0,0.3-0.1,0.6-0.3,0.8c-0.2,0.2-0.5,0.3-0.8,0.3C69.9,15.8,69.7,15.7,69.5,15.5z"/>
	<path class="st0" d="M74.6,15.5c-0.2-0.2-0.3-0.5-0.3-0.8V5.8c0-0.3,0.1-0.6,0.3-0.8c0.2-0.2,0.5-0.3,0.8-0.3S76,4.8,76.2,5
		c0.2,0.2,0.3,0.5,0.3,0.8v0.5c0.5-0.5,1-0.9,1.6-1.2c0.6-0.3,1.3-0.5,2.1-0.5c0.8,0,1.5,0.2,2.1,0.6s1,0.9,1.3,1.5s0.5,1.4,0.5,2.1
		v5.9c0,0.3-0.1,0.6-0.3,0.8c-0.2,0.2-0.5,0.3-0.7,0.3c-0.3,0-0.6-0.1-0.8-0.3C82.1,15.3,82,15,82,14.7V9c0-1.6-0.7-2.4-2.2-2.4
		c-0.6,0-1.2,0.2-1.7,0.5s-1,0.8-1.5,1.4v6.2c0,0.3-0.1,0.6-0.3,0.8c-0.2,0.2-0.5,0.3-0.8,0.3C75.1,15.8,74.8,15.7,74.6,15.5z"/>
	<path class="st0" d="M88.1,15.5c-0.6-0.3-1-0.6-1.3-1.1s-0.5-1.1-0.5-1.7c0-1.1,0.4-2,1.3-2.6c0.9-0.6,2.1-0.9,3.6-0.9h2.4l0,0
		c0-0.9-0.2-1.5-0.6-1.9s-1.1-0.6-2-0.6c-0.5,0-0.9,0-1.3,0.1S88.8,7,88.3,7.2l-0.3,0c-0.2,0-0.5-0.1-0.6-0.3
		C87.1,6.7,87,6.5,87,6.3c0-0.4,0.2-0.7,0.6-0.9c1.2-0.5,2.4-0.8,3.6-0.8c1,0,1.8,0.2,2.5,0.6s1.1,0.9,1.5,1.5
		c0.3,0.6,0.5,1.3,0.5,2.1v5.9c0,0.3-0.1,0.6-0.3,0.8c-0.2,0.2-0.5,0.3-0.8,0.3s-0.6-0.1-0.8-0.3c-0.2-0.2-0.3-0.5-0.3-0.8v-0.2
		c-0.9,0.9-2.2,1.4-3.8,1.4C89.2,15.9,88.7,15.8,88.1,15.5z M92.3,13.6c0.5-0.3,1-0.6,1.4-1.1v-1.6h-2.2c-2,0-3,0.5-3,1.5
		s0.7,1.5,2.1,1.5C91.1,14,91.7,13.8,92.3,13.6z"/>
	<path class="st0" d="M99,15.5c-0.2-0.2-0.3-0.5-0.3-0.8V5.8c0-0.3,0.1-0.6,0.3-0.8c0.2-0.2,0.5-0.3,0.8-0.3s0.6,0.1,0.8,0.3
		c0.2,0.2,0.3,0.5,0.3,0.8v0.5c0.5-0.5,1-0.9,1.6-1.2c0.6-0.3,1.3-0.5,2.1-0.5c0.8,0,1.5,0.2,2.1,0.6s1,0.9,1.3,1.5s0.5,1.4,0.5,2.1
		v5.9c0,0.3-0.1,0.6-0.3,0.8c-0.2,0.2-0.5,0.3-0.7,0.3c-0.3,0-0.6-0.1-0.8-0.3c-0.2-0.2-0.3-0.5-0.3-0.8V9c0-1.6-0.7-2.4-2.2-2.4
		c-0.6,0-1.2,0.2-1.7,0.5s-1,0.8-1.5,1.4v6.2c0,0.3-0.1,0.6-0.3,0.8c-0.2,0.2-0.5,0.3-0.8,0.3C99.5,15.8,99.2,15.7,99,15.5z"/>
	<path class="st0" d="M113.6,15.2c-0.9-0.5-1.6-1.1-2.1-2s-0.8-1.9-0.8-3c0-1.2,0.3-2.2,0.8-3s1.2-1.5,2-2c0.9-0.5,1.8-0.7,2.9-0.7
		c0.7,0,1.3,0.1,1.9,0.3c0.5,0.2,1.1,0.4,1.6,0.8c0.3,0.2,0.4,0.5,0.4,0.8c0,0.2-0.1,0.5-0.3,0.7c-0.2,0.2-0.4,0.3-0.6,0.3
		s-0.3,0-0.5-0.1c-0.5-0.3-0.9-0.4-1.2-0.5c-0.3-0.1-0.7-0.1-1.2-0.1c-1.1,0-2,0.3-2.7,1s-1,1.5-1,2.6s0.3,2,1,2.6
		c0.7,0.7,1.6,1,2.7,1c0.5,0,0.9,0,1.2-0.1c0.3-0.1,0.7-0.3,1.2-0.5c0.2-0.1,0.4-0.1,0.5-0.1c0.2,0,0.5,0.1,0.6,0.3
		c0.2,0.2,0.3,0.4,0.3,0.7s-0.1,0.6-0.4,0.8c-0.5,0.3-1.1,0.6-1.6,0.8c-0.5,0.2-1.2,0.3-1.9,0.3C115.4,15.9,114.5,15.7,113.6,15.2z"
		/>
	<path class="st0" d="M123.2,14.4c-1-1-1.5-2.4-1.5-4.2c0-1,0.2-1.9,0.6-2.8s1-1.6,1.7-2.1c0.8-0.5,1.7-0.8,2.8-0.8
		c1.1,0,2,0.2,2.7,0.7c0.7,0.5,1.3,1.1,1.7,2C131.8,8.1,132,9,132,10c0,0.3-0.1,0.6-0.3,0.8s-0.5,0.3-0.8,0.3H124
		c0.1,0.9,0.5,1.6,1.1,2.1s1.4,0.8,2.5,0.8c0.5,0,1-0.1,1.4-0.2s0.9-0.3,1.3-0.5c0.1-0.1,0.3-0.1,0.4-0.1c0.3,0,0.5,0.1,0.7,0.3
		s0.3,0.4,0.3,0.7c0,0.4-0.2,0.6-0.6,0.9c-0.6,0.3-1.1,0.6-1.7,0.7c-0.5,0.1-1.2,0.2-2,0.2C125.6,15.9,124.2,15.4,123.2,14.4z
		 M129.8,9.1c-0.1-0.5-0.2-1-0.5-1.3c-0.3-0.4-0.6-0.7-1.1-1c-0.4-0.2-0.9-0.3-1.4-0.3c-0.4,0-0.9,0.1-1.3,0.3
		c-0.5,0.2-0.8,0.5-1.1,1c-0.3,0.5-0.4,0.9-0.5,1.5h5.7C129.8,9.2,129.8,9.2,129.8,9.1z"/>
</g>
<g>
	<g>
		<path class="st0" d="M174.6,15.8h-24.5c-4.2,0-7.6-3.4-7.6-7.6V7.8c0-4.2,3.4-7.6,7.6-7.6h24.5c4.2,0,7.6,3.4,7.6,7.6v0.3
			C182.3,12.4,178.9,15.8,174.6,15.8z"/>
	</g>
	<g>
		<path class="st1" d="M153.4,3.5l2.8,7.1H155l-0.7-1.8h-3.1l-0.7,1.8h-1.2l2.8-7.1C152.1,3.5,153.4,3.5,153.4,3.5z M154,7.9
			l-1.2-3.2l0,0l-1.2,3.2C151.6,7.9,154,7.9,154,7.9z"/>
		<path class="st1" d="M158,3.3v7.3h-1.1V3.3H158z"/>
		<path class="st1" d="M163.7,6.1c0.4,0.5,0.6,1.1,0.6,1.9s-0.2,1.4-0.6,1.9c-0.4,0.5-1,0.8-1.8,0.8c-0.6,0-1.2-0.3-1.6-0.9v2.7
			h-1.1V5.4h1V6c0.4-0.5,0.9-0.8,1.6-0.8C162.6,5.3,163.2,5.6,163.7,6.1z M160.6,6.7c-0.2,0.3-0.3,0.8-0.3,1.3v0.1
			c0,0.6,0.1,1,0.4,1.3c0.2,0.3,0.6,0.5,1,0.5c0.5,0,0.9-0.2,1.2-0.5c0.2-0.3,0.3-0.8,0.3-1.3s-0.1-1-0.3-1.3
			c-0.2-0.4-0.6-0.6-1.2-0.6C161.2,6.2,160.9,6.3,160.6,6.7z"/>
		<path class="st1" d="M166.3,3.3v2.8c0.2-0.3,0.4-0.5,0.7-0.7c0.3-0.1,0.6-0.2,0.9-0.2c0.6,0,1.1,0.2,1.4,0.5
			c0.3,0.3,0.5,0.9,0.5,1.6v3.2h-1.1v-3c0-0.5-0.1-0.8-0.3-1c-0.2-0.3-0.5-0.4-0.9-0.4s-0.7,0.1-0.9,0.4s-0.3,0.7-0.3,1.1v2.9h-1.1
			V3.3H166.3z"/>
		<path class="st1" d="M175,5.9c0.3,0.3,0.5,0.8,0.5,1.4v3.3h-1V9.9c-0.2,0.3-0.5,0.5-0.8,0.6c-0.3,0.2-0.7,0.2-1.2,0.2
			s-1-0.1-1.3-0.4c-0.3-0.3-0.5-0.6-0.5-1.1c0-0.6,0.2-1,0.7-1.3c0.4-0.3,1-0.4,1.8-0.5h1.2V7.2c0-0.7-0.4-1.1-1.2-1.1
			c-0.3,0-0.6,0.1-0.8,0.2s-0.4,0.3-0.5,0.6l-1.1-0.1c0.1-0.6,0.4-1,0.8-1.2c0.4-0.2,0.9-0.3,1.5-0.3C174.1,5.3,174.6,5.5,175,5.9z
			 M173.3,8.3c-1,0-1.5,0.4-1.5,1c0,0.2,0.1,0.4,0.3,0.5s0.4,0.2,0.7,0.2c0.4,0,0.8-0.1,1.2-0.4c0.3-0.3,0.5-0.6,0.5-1V8.2
			L173.3,8.3z"/>
	</g>
</g>
</svg>
